<?xml version="1.0" encoding="utf-8"?>
<!-- Generator: Adobe Illustrator 26.2.1, SVG Export Plug-In . SVG Version: 6.00 Build 0)  -->
<svg version="1.1" id="Layer_1" xmlns="http://www.w3.org/2000/svg" xmlns:xlink="http://www.w3.org/1999/xlink" x="0px" y="0px"
	 viewBox="0 0 10 10" style="enable-background:new 0 0 10 10;" xml:space="preserve">
<style type="text/css">
	.st0{fill:#E5471A;}
</style>
<g>
	<rect x="1" y="0.9" class="st0" width="2.1" height="2.1"/>
	<rect x="1" y="3.9" class="st0" width="2.1" height="2.1"/>
	<rect x="1" y="6.9" class="st0" width="2.1" height="2.1"/>
	<path class="st0" d="M8.2,0.5C7.6,0.2,6.9,0.6,6.7,1.2L6.6,1.5c0,0,0.5-0.1,1.2,0.2s1.1,0.7,1.1,0.7L9,2C9.2,1.4,8.9,0.7,8.2,0.5z"
		/>
	<path class="st0" d="M7.6,2.3C6.8,2,6.3,2.1,6.3,2.1L4.5,7.2c0,0,0.5-0.1,1.2,0.2c0.8,0.3,1.1,0.7,1.1,0.7l1.9-5.2
		C8.6,2.9,8.4,2.5,7.6,2.3z"/>
	<path class="st0" d="M5.5,8C4.7,7.7,4.3,7.8,4.3,7.8l0.7,1.8l1.6-0.9C6.5,8.7,6.3,8.3,5.5,8z"/>
</g>
</svg>
