<?xml version="1.0" encoding="utf-8"?>
<!-- Generator: Adobe Illustrator 26.2.1, SVG Export Plug-In . SVG Version: 6.00 Build 0)  -->
<svg version="1.1" id="Layer_1" xmlns="http://www.w3.org/2000/svg" xmlns:xlink="http://www.w3.org/1999/xlink" x="0px" y="0px"
	 viewBox="0 0 10 10" style="enable-background:new 0 0 10 10;" xml:space="preserve">
<style type="text/css">
	.st0{fill:#E5471A;}
</style>
<g>
	<polygon class="st0" points="3.3,4.9 3.9,6.9 6.1,6.9 6.7,4.9 5,3.7 	"/>
	<polygon class="st0" points="4,7.2 4.8,9.5 5.2,9.5 6,7.2 	"/>
	<polygon class="st0" points="6.4,6.9 8.8,6.9 8.9,6.5 7,5.1 	"/>
	<polygon class="st0" points="5.6,9.5 7.9,9.5 8.7,7.2 6.3,7.2 	"/>
	<polygon class="st0" points="6.8,4.6 7.5,2.3 7.2,2.1 5.3,3.5 	"/>
	<polygon class="st0" points="7.8,2.5 7.1,4.8 9,6.2 9.7,3.9 	"/>
	<polygon class="st0" points="4.7,3.5 2.8,2.1 2.5,2.3 3.2,4.6 	"/>
	<polygon class="st0" points="6.9,1.9 5,0.5 3.1,1.9 5,3.3 	"/>
	<polygon class="st0" points="3,5.1 1.1,6.5 1.2,6.9 3.6,6.9 	"/>
	<polygon class="st0" points="1.3,7.2 2.1,9.5 4.4,9.5 3.7,7.2 	"/>
	<polygon class="st0" points="2.2,2.5 0.3,3.9 1,6.2 2.9,4.8 	"/>
</g>
</svg>
