<?xml version="1.0" encoding="utf-8"?>
<!-- Generator: Adobe Illustrator 26.2.1, SVG Export Plug-In . SVG Version: 6.00 Build 0)  -->
<svg version="1.1" id="Layer_1" xmlns="http://www.w3.org/2000/svg" xmlns:xlink="http://www.w3.org/1999/xlink" x="0px" y="0px"
	 viewBox="0 0 10 10" style="enable-background:new 0 0 10 10;" xml:space="preserve">
<style type="text/css">
	.st0{fill:#E5471A;}
</style>
<g>
	<rect x="0.2" y="0.2" class="st0" width="1.4" height="1.4"/>
	<rect x="2.2" y="0.2" class="st0" width="1.4" height="1.4"/>
	<rect x="4.3" y="0.2" class="st0" width="1.4" height="1.4"/>
	<rect x="6.3" y="0.2" class="st0" width="1.4" height="1.4"/>
	<rect x="8.4" y="0.2" class="st0" width="1.4" height="1.4"/>
	<rect x="0.2" y="2.2" class="st0" width="1.4" height="1.4"/>
	<rect x="2.2" y="2.2" class="st0" width="1.4" height="1.4"/>
	<rect x="4.3" y="2.2" class="st0" width="1.4" height="1.4"/>
	<rect x="6.3" y="2.2" class="st0" width="1.4" height="1.4"/>
	<rect x="8.4" y="2.2" class="st0" width="1.4" height="1.4"/>
	<rect x="0.2" y="4.3" class="st0" width="1.4" height="1.4"/>
	<rect x="2.2" y="4.3" class="st0" width="1.4" height="1.4"/>
	<rect x="4.3" y="4.3" class="st0" width="1.4" height="1.4"/>
	<rect x="6.3" y="4.3" class="st0" width="1.4" height="1.4"/>
	<rect x="8.4" y="4.3" class="st0" width="1.4" height="1.4"/>
	<rect x="0.2" y="6.3" class="st0" width="1.4" height="1.4"/>
	<rect x="2.2" y="6.3" class="st0" width="1.4" height="1.4"/>
	<rect x="4.3" y="6.3" class="st0" width="1.4" height="1.4"/>
	<rect x="6.3" y="6.3" class="st0" width="1.4" height="1.4"/>
	<rect x="8.4" y="6.3" class="st0" width="1.4" height="1.4"/>
	<rect x="0.2" y="8.4" class="st0" width="1.4" height="1.4"/>
	<rect x="2.2" y="8.4" class="st0" width="1.4" height="1.4"/>
	<rect x="4.3" y="8.4" class="st0" width="1.4" height="1.4"/>
	<rect x="6.3" y="8.4" class="st0" width="1.4" height="1.4"/>
	<rect x="8.4" y="8.4" class="st0" width="1.4" height="1.4"/>
</g>
</svg>
