<?xml version="1.0" encoding="utf-8"?>
<!-- Generator: Adobe Illustrator 26.2.1, SVG Export Plug-In . SVG Version: 6.00 Build 0)  -->
<svg version="1.1" id="Layer_1" xmlns="http://www.w3.org/2000/svg" xmlns:xlink="http://www.w3.org/1999/xlink" x="0px" y="0px"
	 viewBox="0 0 10 10" style="enable-background:new 0 0 10 10;" xml:space="preserve">
<style type="text/css">
	.st0{fill:#E5471A;}
</style>
<g>
	<path class="st0" d="M5.7,4.7L5,2.4L4.3,4.7c0,0.1-0.1,0.2-0.1,0.3c0,0.4,0.4,0.8,0.8,0.8c0.4,0,0.8-0.4,0.8-0.8
		C5.8,4.9,5.8,4.8,5.7,4.7L5.7,4.7z"/>
	<path class="st0" d="M5,0.5c-2.5,0-4.5,2-4.5,4.5c0,2.5,2,4.5,4.5,4.5c2.5,0,4.5-2,4.5-4.5C9.5,2.5,7.5,0.5,5,0.5z M5,6.1
		C4.4,6.1,3.9,5.6,3.9,5c0-0.1,0-0.3,0.1-0.4L5,1.3l1.1,3.3c0,0.1,0.1,0.3,0.1,0.4C6.1,5.6,5.6,6.1,5,6.1z"/>
</g>
</svg>
