<?xml version="1.0" encoding="utf-8"?>
<!-- Generator: Adobe Illustrator 26.2.1, SVG Export Plug-In . SVG Version: 6.00 Build 0)  -->
<svg version="1.1" id="Layer_1" xmlns="http://www.w3.org/2000/svg" xmlns:xlink="http://www.w3.org/1999/xlink" x="0px" y="0px"
	 viewBox="0 0 10 10" style="enable-background:new 0 0 10 10;" xml:space="preserve">
<style type="text/css">
	.st0{fill:#E5471A;}
</style>
<g>
	<rect x="0.1" y="0.1" class="st0" width="1.1" height="1.1"/>
	<rect x="1.6" y="0.1" class="st0" width="1.1" height="1.1"/>
	<rect x="3" y="0.1" class="st0" width="1.1" height="1.1"/>
	<rect x="4.5" y="0.1" class="st0" width="1.1" height="1.1"/>
	<rect x="5.9" y="0.1" class="st0" width="1.1" height="1.1"/>
	<rect x="7.4" y="0.1" class="st0" width="1.1" height="1.1"/>
	<rect x="8.8" y="0.1" class="st0" width="1.1" height="1.1"/>
	<rect x="0.1" y="1.6" class="st0" width="1.1" height="1.1"/>
	<rect x="1.6" y="1.6" class="st0" width="1.1" height="1.1"/>
	<rect x="3" y="1.6" class="st0" width="1.1" height="1.1"/>
	<rect x="4.5" y="1.6" class="st0" width="1.1" height="1.1"/>
	<rect x="5.9" y="1.6" class="st0" width="1.1" height="1.1"/>
	<rect x="7.4" y="1.6" class="st0" width="1.1" height="1.1"/>
	<rect x="8.8" y="1.6" class="st0" width="1.1" height="1.1"/>
	<rect x="0.1" y="3" class="st0" width="1.1" height="1.1"/>
	<rect x="1.6" y="3" class="st0" width="1.1" height="1.1"/>
	<rect x="3" y="3" class="st0" width="1.1" height="1.1"/>
	<rect x="4.5" y="3" class="st0" width="1.1" height="1.1"/>
	<rect x="5.9" y="3" class="st0" width="1.1" height="1.1"/>
	<rect x="7.4" y="3" class="st0" width="1.1" height="1.1"/>
	<rect x="8.8" y="3" class="st0" width="1.1" height="1.1"/>
	<rect x="0.1" y="4.5" class="st0" width="1.1" height="1.1"/>
	<rect x="1.6" y="4.5" class="st0" width="1.1" height="1.1"/>
	<rect x="3" y="4.5" class="st0" width="1.1" height="1.1"/>
	<rect x="4.5" y="4.5" class="st0" width="1.1" height="1.1"/>
	<rect x="5.9" y="4.5" class="st0" width="1.1" height="1.1"/>
	<rect x="7.4" y="4.5" class="st0" width="1.1" height="1.1"/>
	<rect x="8.8" y="4.5" class="st0" width="1.1" height="1.1"/>
	<rect x="0.1" y="5.9" class="st0" width="1.1" height="1.1"/>
	<rect x="1.6" y="5.9" class="st0" width="1.1" height="1.1"/>
	<rect x="3" y="5.9" class="st0" width="1.1" height="1.1"/>
	<rect x="4.5" y="5.9" class="st0" width="1.1" height="1.1"/>
	<rect x="5.9" y="5.9" class="st0" width="1.1" height="1.1"/>
	<rect x="7.4" y="5.9" class="st0" width="1.1" height="1.1"/>
	<rect x="8.8" y="5.9" class="st0" width="1.1" height="1.1"/>
	<rect x="0.1" y="7.4" class="st0" width="1.1" height="1.1"/>
	<rect x="1.6" y="7.4" class="st0" width="1.1" height="1.1"/>
	<rect x="3" y="7.4" class="st0" width="1.1" height="1.1"/>
	<rect x="4.5" y="7.4" class="st0" width="1.1" height="1.1"/>
	<rect x="5.9" y="7.4" class="st0" width="1.1" height="1.1"/>
	<rect x="7.4" y="7.4" class="st0" width="1.1" height="1.1"/>
	<rect x="8.8" y="7.4" class="st0" width="1.1" height="1.1"/>
	<rect x="0.1" y="8.8" class="st0" width="1.1" height="1.1"/>
	<rect x="1.6" y="8.8" class="st0" width="1.1" height="1.1"/>
	<rect x="3" y="8.8" class="st0" width="1.1" height="1.1"/>
	<rect x="4.5" y="8.8" class="st0" width="1.1" height="1.1"/>
	<rect x="5.9" y="8.8" class="st0" width="1.1" height="1.1"/>
	<rect x="7.4" y="8.8" class="st0" width="1.1" height="1.1"/>
	<rect x="8.8" y="8.8" class="st0" width="1.1" height="1.1"/>
</g>
</svg>
