<?xml version="1.0" encoding="utf-8"?>
<!-- Generator: Adobe Illustrator 26.2.1, SVG Export Plug-In . SVG Version: 6.00 Build 0)  -->
<svg version="1.1" id="Layer_1" xmlns="http://www.w3.org/2000/svg" xmlns:xlink="http://www.w3.org/1999/xlink" x="0px" y="0px"
	 viewBox="0 0 10 10" style="enable-background:new 0 0 10 10;" xml:space="preserve">
<style type="text/css">
	.st0{fill:#E5471A;}
</style>
<g>
	<rect x="1.1" y="0.9" class="st0" width="1.6" height="1.6"/>
	<rect x="1.1" y="3.1" class="st0" width="1.6" height="1.6"/>
	<rect x="1.1" y="5.3" class="st0" width="1.6" height="1.6"/>
	<rect x="1.1" y="7.5" class="st0" width="1.6" height="1.6"/>
	<path class="st0" d="M8.3,5c0-0.4,0.3-1.3,0.3-1.3c0.4-0.8,0.3-1.8,0.3-1.8s0-1.2-2.2-0.9S4.7,4,4.7,4v1v1c0,0-0.3,2.9,1.9,3.1
		c2.2,0.2,2.2-0.9,2.2-0.9s0.1-1.1-0.3-1.8C8.5,6.3,8.3,5.4,8.3,5z"/>
</g>
</svg>
