<?xml version="1.0" encoding="utf-8"?>
<!-- Generator: Adobe Illustrator 26.2.1, SVG Export Plug-In . SVG Version: 6.00 Build 0)  -->
<svg version="1.1" id="Layer_1" xmlns="http://www.w3.org/2000/svg" xmlns:xlink="http://www.w3.org/1999/xlink" x="0px" y="0px"
	 viewBox="0 0 10 10" style="enable-background:new 0 0 10 10;" xml:space="preserve">
<style type="text/css">
	.st0{fill:#E5471A;}
</style>
<g>
	<path class="st0" d="M9.1,5c0-0.4,0.3-1.3,0.3-1.3c0.4-0.8,0.3-1.8,0.3-1.8s0-1.2-2.2-0.9S5.5,4,5.5,4v1v1c0,0-0.3,2.9,1.9,3.1
		c2.2,0.2,2.2-0.9,2.2-0.9s0.1-1.1-0.3-1.8C9.3,6.3,9.1,5.4,9.1,5z"/>
	<rect x="2.3" y="0.3" transform="matrix(0.7071 -0.7071 0.7071 0.7071 0.2589 2.1475)" class="st0" width="0.8" height="0.8"/>
	
		<rect x="3.2" y="1.2" transform="matrix(0.7071 -0.7071 0.7071 0.7071 -9.922016e-02 3.012)" class="st0" width="0.8" height="0.8"/>
	<rect x="4" y="2.1" transform="matrix(0.7071 -0.7071 0.7071 0.7071 -0.4573 3.8764)" class="st0" width="0.8" height="0.8"/>
	<rect x="1.4" y="1.2" transform="matrix(0.7071 -0.7071 0.7071 0.7071 -0.6056 1.7894)" class="st0" width="0.8" height="0.8"/>
	<rect x="2.3" y="2.1" transform="matrix(0.7071 -0.7071 0.7071 0.7071 -0.9637 2.6539)" class="st0" width="0.8" height="0.8"/>
	<rect x="3.2" y="2.9" transform="matrix(0.7071 -0.7071 0.7071 0.7071 -1.3218 3.5184)" class="st0" width="0.8" height="0.8"/>
	<rect x="0.6" y="2.1" transform="matrix(0.7071 -0.7071 0.7071 0.7071 -1.4701 1.4313)" class="st0" width="0.8" height="0.8"/>
	<rect x="1.4" y="2.9" transform="matrix(0.7071 -0.7071 0.7071 0.7071 -1.8282 2.2958)" class="st0" width="0.8" height="0.8"/>
	<rect x="2.3" y="3.8" transform="matrix(0.7071 -0.7071 0.7071 0.7071 -2.1863 3.1603)" class="st0" width="0.8" height="0.8"/>
	<rect x="2.3" y="5.4" transform="matrix(0.7071 -0.7071 0.7071 0.7071 -3.2904 3.6176)" class="st0" width="0.8" height="0.8"/>
	<rect x="3.2" y="6.2" transform="matrix(0.7071 -0.7071 0.7071 0.7071 -3.6485 4.4822)" class="st0" width="0.8" height="0.8"/>
	<rect x="4" y="7.1" transform="matrix(0.7071 -0.7071 0.7071 0.7071 -4.0066 5.3466)" class="st0" width="0.8" height="0.8"/>
	<rect x="1.4" y="6.2" transform="matrix(0.7071 -0.7071 0.7071 0.7071 -4.1549 3.2596)" class="st0" width="0.8" height="0.8"/>
	<rect x="2.3" y="7.1" transform="matrix(0.7071 -0.7071 0.7071 0.7071 -4.513 4.124)" class="st0" width="0.8" height="0.8"/>
	<rect x="3.2" y="8" transform="matrix(0.7071 -0.7071 0.7071 0.7071 -4.8711 4.9885)" class="st0" width="0.8" height="0.8"/>
	<rect x="0.6" y="7.1" transform="matrix(0.7071 -0.7071 0.7071 0.7071 -5.0195 2.9015)" class="st0" width="0.8" height="0.8"/>
	<rect x="1.4" y="8" transform="matrix(0.7071 -0.7071 0.7071 0.7071 -5.3776 3.766)" class="st0" width="0.8" height="0.8"/>
	<rect x="2.3" y="8.8" transform="matrix(0.7071 -0.7071 0.7071 0.7071 -5.7356 4.6305)" class="st0" width="0.8" height="0.8"/>
</g>
</svg>
