<?xml version="1.0" encoding="utf-8"?>
<!-- Generator: Adobe Illustrator 26.2.1, SVG Export Plug-In . SVG Version: 6.00 Build 0)  -->
<svg version="1.1" id="Layer_1" xmlns="http://www.w3.org/2000/svg" xmlns:xlink="http://www.w3.org/1999/xlink" x="0px" y="0px"
	 viewBox="0 0 10 10" style="enable-background:new 0 0 10 10;" xml:space="preserve">
<style type="text/css">
	.st0{fill:#E5471A;}
</style>
<g>
	<rect x="2.5" y="0.5" class="st0" width="1.2" height="1.2"/>
	<rect x="4.2" y="0.5" class="st0" width="1.2" height="1.2"/>
	<rect x="5.9" y="0.5" class="st0" width="1.2" height="1.2"/>
	<rect x="2.5" y="2.2" class="st0" width="1.2" height="1.2"/>
	<rect x="4.2" y="2.2" class="st0" width="1.2" height="1.2"/>
	<rect x="5.9" y="2.2" class="st0" width="1.2" height="1.2"/>
	<rect x="2.5" y="3.8" class="st0" width="1.2" height="1.2"/>
	<rect x="4.2" y="3.8" class="st0" width="1.2" height="1.2"/>
	<rect x="5.9" y="3.8" class="st0" width="1.2" height="1.2"/>
	<path class="st0" d="M6.8,5.6H3.9C3.7,5.6,3.5,5.8,3.5,6c0,0.2,0.2,0.4,0.4,0.4h2.1c0.1,0,0.1,0,0.1,0.1c0,0,0,0.1-0.1,0.1
		c0,0,0,0,0,0c0,0,0,0,0,0H3.3L1.8,5.1C1.6,5,1.3,5,1.1,5.1C1,5.3,1,5.6,1.1,5.8l1.5,1.5l0.6,0.6h4.1L9,9.5V7.8L6.8,5.6z"/>
</g>
</svg>
