<?xml version="1.0" encoding="utf-8"?>
<!-- Generator: Adobe Illustrator 26.3.1, SVG Export Plug-In . SVG Version: 6.00 Build 0)  -->
<svg version="1.1" id="Layer_1" xmlns="http://www.w3.org/2000/svg" xmlns:xlink="http://www.w3.org/1999/xlink" x="0px" y="0px"
	 viewBox="0 0 10 10" style="enable-background:new 0 0 10 10;" xml:space="preserve">
<style type="text/css">
	.st0{fill:#E5471A;}
</style>
<g>
	<path class="st0" d="M1,2.9C1,3,1.1,3.1,1.2,3.1h1.7C3,3.1,3.1,3,3.1,2.9V1.2C3.1,1.1,3,1,2.9,1H1.2C1.1,1,1,1.1,1,1.2V2.9z"/>
	<path class="st0" d="M1,5.9C1,6,1.1,6.1,1.2,6.1h1.7C3,6.1,3.1,6,3.1,5.9V4.2C3.1,4,3,4,2.9,4H1.2C1.1,4,1,4,1,4.2V5.9z"/>
	<path class="st0" d="M1,8.8C1,9,1.1,9,1.2,9h1.7C3,9,3.1,9,3.1,8.8V7.1C3.1,7,3,6.9,2.9,6.9H1.2C1.1,6.9,1,7,1,7.1V8.8z"/>
	<path class="st0" d="M8.2,0.5C7.6,0.3,6.9,0.6,6.6,1.2L6.5,1.5c0,0,0.4-0.1,1.2,0.2s1.1,0.7,1.1,0.7l0.1-0.3
		C9.1,1.4,8.8,0.7,8.2,0.5z"/>
	<path class="st0" d="M7.6,2.3C6.8,2,6.3,2.1,6.3,2.1L4.5,7.2c0,0,0.4-0.1,1.2,0.2C6.5,7.7,6.7,8,6.7,8l1.9-5.1
		C8.6,2.9,8.3,2.6,7.6,2.3z"/>
	<path class="st0" d="M5.5,8C4.7,7.7,4.3,7.8,4.3,7.8l0.6,1.8l1.6-0.9C6.5,8.6,6.3,8.3,5.5,8z"/>
</g>
</svg>
