<?xml version="1.0" encoding="utf-8"?>
<!-- Generator: Adobe Illustrator 26.3.1, SVG Export Plug-In . SVG Version: 6.00 Build 0)  -->
<svg version="1.1" id="Layer_1" xmlns="http://www.w3.org/2000/svg" xmlns:xlink="http://www.w3.org/1999/xlink" x="0px" y="0px"
	 viewBox="0 0 10 10" style="enable-background:new 0 0 10 10;" xml:space="preserve">
<style type="text/css">
	.st0{fill:#E5471A;}
</style>
<g>
	<path class="st0" d="M1.2,2.9c0,0.1,0.1,0.2,0.2,0.2h1.7c0.1,0,0.2-0.1,0.2-0.2V1.2C3.3,1.1,3.2,1,3.1,1H1.4C1.3,1,1.2,1.1,1.2,1.2
		V2.9z"/>
	<path class="st0" d="M1.2,5.9c0,0.1,0.1,0.2,0.2,0.2h1.7c0.1,0,0.2-0.1,0.2-0.2V4.1c0-0.1-0.1-0.2-0.2-0.2H1.4
		C1.3,3.9,1.2,4,1.2,4.1V5.9z"/>
	<path class="st0" d="M1.2,8.8C1.2,8.9,1.3,9,1.4,9h1.7c0.1,0,0.2-0.1,0.2-0.2V7.1c0-0.1-0.1-0.2-0.2-0.2H1.4C1.3,6.9,1.2,7,1.2,7.1
		V8.8z"/>
	<path class="st0" d="M8.3,5c0-0.4,0.3-1.3,0.3-1.3c0.4-0.8,0.3-1.8,0.3-1.8s0-1.2-2.2-0.9S4.8,4,4.8,4v1v1c0,0-0.3,2.9,1.9,3.1
		c2.2,0.2,2.2-0.9,2.2-0.9s0.1-1.1-0.3-1.8C8.6,6.3,8.3,5.4,8.3,5z"/>
</g>
</svg>
