<?xml version="1.0" encoding="utf-8"?>
<!-- Generator: Adobe Illustrator 26.3.1, SVG Export Plug-In . SVG Version: 6.00 Build 0)  -->
<svg version="1.1" id="Layer_1" xmlns="http://www.w3.org/2000/svg" xmlns:xlink="http://www.w3.org/1999/xlink" x="0px" y="0px"
	 viewBox="0 0 10 10" style="enable-background:new 0 0 10 10;" xml:space="preserve">
<style type="text/css">
	.st0{fill:#E5471A;}
</style>
<g>
	<g>
		<path class="st0" d="M0.4,2.4c0,0.2,0.2,0.4,0.4,0.4h1.6c0.2,0,0.4-0.2,0.4-0.4V0.8c0-0.2-0.2-0.4-0.4-0.4H0.8
			c-0.2,0-0.4,0.2-0.4,0.4V2.4z"/>
	</g>
	<g>
		<path class="st0" d="M3.8,2.4c0,0.2,0.2,0.4,0.4,0.4h1.6c0.2,0,0.4-0.2,0.4-0.4V0.8c0-0.2-0.2-0.4-0.4-0.4H4.2
			C4,0.4,3.8,0.6,3.8,0.8V2.4z"/>
	</g>
	<g>
		<path class="st0" d="M7.6,0.4c-0.2,0-0.4,0.2-0.4,0.4v1.6c0,0.2,0.2,0.4,0.4,0.4h1.6c0.2,0,0.4-0.2,0.4-0.4V0.8
			c0-0.2-0.2-0.4-0.4-0.4H7.6z"/>
	</g>
	<g>
		<path class="st0" d="M0.4,5.8c0,0.2,0.2,0.4,0.4,0.4h1.6c0.2,0,0.4-0.2,0.4-0.4V4.2c0-0.2-0.2-0.4-0.4-0.4H0.8
			C0.6,3.8,0.4,4,0.4,4.2V5.8z"/>
	</g>
	<g>
		<path class="st0" d="M3.8,5.8C3.8,6,4,6.2,4.2,6.2h1.6C6,6.2,6.2,6,6.2,5.8V4.2C6.2,4,6,3.8,5.8,3.8H4.2C4,3.8,3.8,4,3.8,4.2V5.8z
			"/>
	</g>
	<g>
		<path class="st0" d="M7.2,5.8c0,0.2,0.2,0.4,0.4,0.4h1.6c0.2,0,0.4-0.2,0.4-0.4V4.2c0-0.2-0.2-0.4-0.4-0.4H7.6
			C7.4,3.8,7.2,4,7.2,4.2V5.8z"/>
	</g>
	<g>
		<path class="st0" d="M0.4,9.2c0,0.2,0.2,0.4,0.4,0.4h1.6c0.2,0,0.4-0.2,0.4-0.4V7.6c0-0.2-0.2-0.4-0.4-0.4H0.8
			c-0.2,0-0.4,0.2-0.4,0.4V9.2z"/>
	</g>
	<g>
		<path class="st0" d="M3.8,9.2c0,0.2,0.2,0.4,0.4,0.4h1.6c0.2,0,0.4-0.2,0.4-0.4V7.6c0-0.2-0.2-0.4-0.4-0.4H4.2
			C4,7.2,3.8,7.4,3.8,7.6V9.2z"/>
	</g>
	<g>
		<path class="st0" d="M7.2,9.2c0,0.2,0.2,0.4,0.4,0.4h1.6c0.2,0,0.4-0.2,0.4-0.4V7.6c0-0.2-0.2-0.4-0.4-0.4H7.6
			c-0.2,0-0.4,0.2-0.4,0.4V9.2z"/>
	</g>
</g>
</svg>
