<?xml version="1.0" encoding="utf-8"?>
<!-- Generator: Adobe Illustrator 26.3.1, SVG Export Plug-In . SVG Version: 6.00 Build 0)  -->
<svg version="1.1" id="Layer_1" xmlns="http://www.w3.org/2000/svg" xmlns:xlink="http://www.w3.org/1999/xlink" x="0px" y="0px"
	 viewBox="0 0 10 10" style="enable-background:new 0 0 10 10;" xml:space="preserve">
<style type="text/css">
	.st0{fill:#E5471A;}
</style>
<g>
	<g>
		<path class="st0" d="M0.7,4c0,0.2,0.2,0.4,0.4,0.4H4c0.2,0,0.4-0.2,0.4-0.4V1.1c0-0.2-0.2-0.4-0.4-0.4H1.1c-0.2,0-0.4,0.2-0.4,0.4
			V4z"/>
	</g>
	<g>
		<path class="st0" d="M6,0.7c-0.2,0-0.4,0.2-0.4,0.4V4c0,0.2,0.2,0.4,0.4,0.4h2.9c0.2,0,0.4-0.2,0.4-0.4V1.1c0-0.2-0.2-0.4-0.4-0.4
			H6z"/>
	</g>
	<g>
		<path class="st0" d="M0.7,8.9c0,0.2,0.2,0.4,0.4,0.4H4c0.2,0,0.4-0.2,0.4-0.4V6c0-0.2-0.2-0.4-0.4-0.4H1.1C0.9,5.6,0.7,5.8,0.7,6
			V8.9z"/>
	</g>
	<g>
		<path class="st0" d="M5.6,8.9c0,0.2,0.2,0.4,0.4,0.4h2.9c0.2,0,0.4-0.2,0.4-0.4V6c0-0.2-0.2-0.4-0.4-0.4H6C5.8,5.6,5.6,5.8,5.6,6
			V8.9z"/>
	</g>
</g>
</svg>
