<?xml version="1.0" encoding="utf-8"?>
<!-- Generator: Adobe Illustrator 26.3.1, SVG Export Plug-In . SVG Version: 6.00 Build 0)  -->
<svg version="1.1" id="Layer_1" xmlns="http://www.w3.org/2000/svg" xmlns:xlink="http://www.w3.org/1999/xlink" x="0px" y="0px"
	 viewBox="0 0 10 10" style="enable-background:new 0 0 10 10;" xml:space="preserve">
<style type="text/css">
	.st0{fill:#E5471A;}
</style>
<g>
	<g>
		<path class="st0" d="M0.2,1.8C0.2,1.9,0.3,2,0.4,2h1.4C1.9,2,2,1.9,2,1.8V0.4c0-0.1-0.1-0.2-0.2-0.2H0.4c-0.1,0-0.2,0.1-0.2,0.2
			V1.8z"/>
	</g>
	<g>
		<path class="st0" d="M2.8,1.8C2.8,1.9,2.9,2,3,2h1.4c0.1,0,0.2-0.1,0.2-0.2V0.4c0-0.1-0.1-0.2-0.2-0.2H3c-0.1,0-0.2,0.1-0.2,0.2
			V1.8z"/>
	</g>
	<g>
		<path class="st0" d="M5.4,1.8C5.4,1.9,5.5,2,5.6,2H7c0.1,0,0.2-0.1,0.2-0.2V0.4c0-0.1-0.1-0.2-0.2-0.2H5.6c-0.1,0-0.2,0.1-0.2,0.2
			V1.8z"/>
	</g>
	<g>
		<path class="st0" d="M8.2,0.2C8.1,0.2,8,0.3,8,0.4v1.4C8,1.9,8.1,2,8.2,2h1.4c0.1,0,0.2-0.1,0.2-0.2V0.4c0-0.1-0.1-0.2-0.2-0.2
			H8.2z"/>
	</g>
	<g>
		<path class="st0" d="M0.2,4.4c0,0.1,0.1,0.2,0.2,0.2h1.4C1.9,4.6,2,4.5,2,4.4V3c0-0.1-0.1-0.2-0.2-0.2H0.4C0.3,2.8,0.2,2.9,0.2,3
			V4.4z"/>
	</g>
	<g>
		<path class="st0" d="M2.8,4.4c0,0.1,0.1,0.2,0.2,0.2h1.4c0.1,0,0.2-0.1,0.2-0.2V3c0-0.1-0.1-0.2-0.2-0.2H3C2.9,2.8,2.8,2.9,2.8,3
			V4.4z"/>
	</g>
	<g>
		<path class="st0" d="M5.4,4.4c0,0.1,0.1,0.2,0.2,0.2H7c0.1,0,0.2-0.1,0.2-0.2V3c0-0.1-0.1-0.2-0.2-0.2H5.6C5.5,2.8,5.4,2.9,5.4,3
			V4.4z"/>
	</g>
	<g>
		<path class="st0" d="M8,4.4c0,0.1,0.1,0.2,0.2,0.2h1.4c0.1,0,0.2-0.1,0.2-0.2V3c0-0.1-0.1-0.2-0.2-0.2H8.2C8.1,2.8,8,2.9,8,3V4.4z
			"/>
	</g>
	<g>
		<path class="st0" d="M0.2,7c0,0.1,0.1,0.2,0.2,0.2h1.4C1.9,7.2,2,7.1,2,7V5.6c0-0.1-0.1-0.2-0.2-0.2H0.4c-0.1,0-0.2,0.1-0.2,0.2V7
			z"/>
	</g>
	<g>
		<path class="st0" d="M2.8,7c0,0.1,0.1,0.2,0.2,0.2h1.4c0.1,0,0.2-0.1,0.2-0.2V5.6c0-0.1-0.1-0.2-0.2-0.2H3c-0.1,0-0.2,0.1-0.2,0.2
			V7z"/>
	</g>
	<g>
		<path class="st0" d="M5.4,7c0,0.1,0.1,0.2,0.2,0.2H7c0.1,0,0.2-0.1,0.2-0.2V5.6c0-0.1-0.1-0.2-0.2-0.2H5.6c-0.1,0-0.2,0.1-0.2,0.2
			V7z"/>
	</g>
	<g>
		<path class="st0" d="M8,7c0,0.1,0.1,0.2,0.2,0.2h1.4c0.1,0,0.2-0.1,0.2-0.2V5.6c0-0.1-0.1-0.2-0.2-0.2H8.2C8.1,5.4,8,5.5,8,5.6V7z
			"/>
	</g>
	<g>
		<path class="st0" d="M0.2,9.6c0,0.1,0.1,0.2,0.2,0.2h1.4C1.9,9.8,2,9.7,2,9.6V8.2C2,8.1,1.9,8,1.8,8H0.4C0.3,8,0.2,8.1,0.2,8.2
			V9.6z"/>
	</g>
	<g>
		<path class="st0" d="M2.8,9.6c0,0.1,0.1,0.2,0.2,0.2h1.4c0.1,0,0.2-0.1,0.2-0.2V8.2C4.6,8.1,4.5,8,4.4,8H3C2.9,8,2.8,8.1,2.8,8.2
			V9.6z"/>
	</g>
	<g>
		<path class="st0" d="M5.4,9.6c0,0.1,0.1,0.2,0.2,0.2H7c0.1,0,0.2-0.1,0.2-0.2V8.2C7.2,8.1,7.1,8,7,8H5.6C5.5,8,5.4,8.1,5.4,8.2
			V9.6z"/>
	</g>
	<g>
		<path class="st0" d="M8,9.6c0,0.1,0.1,0.2,0.2,0.2h1.4c0.1,0,0.2-0.1,0.2-0.2V8.2C9.8,8.1,9.7,8,9.6,8H8.2C8.1,8,8,8.1,8,8.2V9.6z
			"/>
	</g>
</g>
</svg>
