<?xml version="1.0" encoding="utf-8"?>
<!-- Generator: Adobe Illustrator 26.3.1, SVG Export Plug-In . SVG Version: 6.00 Build 0)  -->
<svg version="1.1" id="Layer_1" xmlns="http://www.w3.org/2000/svg" xmlns:xlink="http://www.w3.org/1999/xlink" x="0px" y="0px"
	 viewBox="0 0 10 10" style="enable-background:new 0 0 10 10;" xml:space="preserve">
<style type="text/css">
	.st0{fill:#E5471A;}
</style>
<g>
	<path class="st0" d="M9,5c0-0.4,0.3-1.3,0.3-1.3c0.4-0.8,0.3-1.8,0.3-1.8s0-1.2-2.2-0.9S5.5,4,5.5,4v1v1c0,0-0.3,2.9,1.9,3.1
		c2.2,0.2,2.2-0.9,2.2-0.9s0.1-1.1-0.3-1.8C9.3,6.3,9,5.4,9,5z"/>
	<path class="st0" d="M3.1,0.9c0.1-0.1,0.1-0.2,0-0.3L2.8,0.3c-0.1-0.1-0.2-0.1-0.3,0L2.2,0.6c-0.1,0.1-0.1,0.2,0,0.3l0.3,0.3
		c0.1,0.1,0.2,0.1,0.3,0L3.1,0.9z"/>
	<path class="st0" d="M3.4,2.1c0.1,0.1,0.2,0.1,0.3,0L4,1.8c0.1-0.1,0.1-0.2,0-0.3L3.7,1.2c-0.1-0.1-0.2-0.1-0.3,0L3.1,1.5
		C3,1.6,3,1.7,3.1,1.8L3.4,2.1z"/>
	<path class="st0" d="M4,2.3C3.9,2.4,3.9,2.6,4,2.6l0.3,0.3C4.3,3,4.5,3,4.6,2.9l0.3-0.3c0.1-0.1,0.1-0.2,0-0.3L4.6,2
		C4.5,2,4.3,2,4.3,2L4,2.3z"/>
	<path class="st0" d="M2.3,1.8c0.1-0.1,0.1-0.2,0-0.3L2,1.2c-0.1-0.1-0.2-0.1-0.3,0L1.4,1.5c-0.1,0.1-0.1,0.2,0,0.3l0.3,0.3
		c0.1,0.1,0.2,0.1,0.3,0L2.3,1.8z"/>
	<path class="st0" d="M2.8,2C2.7,2,2.6,2,2.5,2L2.2,2.3c-0.1,0.1-0.1,0.2,0,0.3l0.3,0.3C2.6,3,2.7,3,2.8,2.9l0.3-0.3
		c0.1-0.1,0.1-0.2,0-0.3L2.8,2z"/>
	<path class="st0" d="M3.7,2.9c-0.1-0.1-0.2-0.1-0.3,0L3.1,3.2C3,3.3,3,3.4,3.1,3.5l0.3,0.3c0.1,0.1,0.2,0.1,0.3,0L4,3.5
		c0.1-0.1,0.1-0.2,0-0.3L3.7,2.9z"/>
	<path class="st0" d="M1.4,2.6c0.1-0.1,0.1-0.2,0-0.3L1.1,2C1,2,0.9,2,0.8,2L0.5,2.3c-0.1,0.1-0.1,0.2,0,0.3l0.3,0.3
		C0.9,3,1,3,1.1,2.9L1.4,2.6z"/>
	<path class="st0" d="M1.4,3.2c-0.1,0.1-0.1,0.2,0,0.3l0.3,0.3c0.1,0.1,0.2,0.1,0.3,0l0.3-0.3c0.1-0.1,0.1-0.2,0-0.3L2,2.9
		c-0.1-0.1-0.2-0.1-0.3,0L1.4,3.2z"/>
	<path class="st0" d="M2.8,3.8c-0.1-0.1-0.2-0.1-0.3,0L2.2,4.1c-0.1,0.1-0.1,0.2,0,0.3l0.3,0.3c0.1,0.1,0.2,0.1,0.3,0l0.3-0.3
		c0.1-0.1,0.1-0.2,0-0.3L2.8,3.8z"/>
	<path class="st0" d="M2.2,5.6c-0.1,0.1-0.1,0.2,0,0.3l0.3,0.3c0.1,0.1,0.2,0.1,0.3,0l0.3-0.3c0.1-0.1,0.1-0.2,0-0.3L2.8,5.3
		c-0.1-0.1-0.2-0.1-0.3,0L2.2,5.6z"/>
	<path class="st0" d="M4,6.8c0.1-0.1,0.1-0.2,0-0.3L3.7,6.2c-0.1-0.1-0.2-0.1-0.3,0L3.1,6.5C3,6.6,3,6.7,3.1,6.8l0.3,0.3
		c0.1,0.1,0.2,0.1,0.3,0L4,6.8z"/>
	<path class="st0" d="M4,7.4C3.9,7.4,3.9,7.6,4,7.7L4.3,8C4.3,8,4.5,8,4.6,8l0.3-0.3c0.1-0.1,0.1-0.2,0-0.3L4.6,7.1
		C4.5,7,4.3,7,4.3,7.1L4,7.4z"/>
	<path class="st0" d="M1.7,7.1c0.1,0.1,0.2,0.1,0.3,0l0.3-0.3c0.1-0.1,0.1-0.2,0-0.3L2,6.2c-0.1-0.1-0.2-0.1-0.3,0L1.4,6.5
		c-0.1,0.1-0.1,0.2,0,0.3L1.7,7.1z"/>
	<path class="st0" d="M3.1,7.7c0.1-0.1,0.1-0.2,0-0.3L2.8,7.1C2.7,7,2.6,7,2.5,7.1L2.2,7.4c-0.1,0.1-0.1,0.2,0,0.3L2.5,8
		C2.6,8,2.7,8,2.8,8L3.1,7.7z"/>
	<path class="st0" d="M3.1,8.2C3,8.3,3,8.4,3.1,8.5l0.3,0.3c0.1,0.1,0.2,0.1,0.3,0L4,8.5c0.1-0.1,0.1-0.2,0-0.3L3.7,7.9
		c-0.1-0.1-0.2-0.1-0.3,0L3.1,8.2z"/>
	<path class="st0" d="M1.1,7.1C1,7,0.9,7,0.8,7.1L0.5,7.4c-0.1,0.1-0.1,0.2,0,0.3L0.8,8C0.9,8,1,8,1.1,8l0.3-0.3
		c0.1-0.1,0.1-0.2,0-0.3L1.1,7.1z"/>
	<path class="st0" d="M2,7.9c-0.1-0.1-0.2-0.1-0.3,0L1.4,8.2c-0.1,0.1-0.1,0.2,0,0.3l0.3,0.3c0.1,0.1,0.2,0.1,0.3,0l0.3-0.3
		c0.1-0.1,0.1-0.2,0-0.3L2,7.9z"/>
	<path class="st0" d="M2.2,9.1c-0.1,0.1-0.1,0.2,0,0.3l0.3,0.3c0.1,0.1,0.2,0.1,0.3,0l0.3-0.3c0.1-0.1,0.1-0.2,0-0.3L2.8,8.8
		c-0.1-0.1-0.2-0.1-0.3,0L2.2,9.1z"/>
</g>
</svg>
