<?xml version="1.0" encoding="utf-8"?>
<!-- Generator: Adobe Illustrator 26.3.1, SVG Export Plug-In . SVG Version: 6.00 Build 0)  -->
<svg version="1.1" id="Layer_1" xmlns="http://www.w3.org/2000/svg" xmlns:xlink="http://www.w3.org/1999/xlink" x="0px" y="0px"
	 viewBox="0 0 10 10" style="enable-background:new 0 0 10 10;" xml:space="preserve">
<style type="text/css">
	.st0{fill:#E5471A;}
</style>
<g>
	<path class="st0" d="M5.7,4.7L5,2.4L4.3,4.7c0,0.1-0.1,0.2-0.1,0.3c0,0.4,0.4,0.8,0.8,0.8c0.4,0,0.8-0.4,0.8-0.8
		C5.8,4.9,5.8,4.8,5.7,4.7L5.7,4.7z"/>
	<path class="st0" d="M5,0.6c-2.4,0-4.4,2-4.4,4.4c0,2.4,2,4.4,4.4,4.4c2.4,0,4.4-2,4.4-4.4C9.4,2.6,7.4,0.6,5,0.6z M5,6.1
		C4.4,6.1,3.9,5.6,3.9,5c0-0.1,0-0.2,0.1-0.4l1-3.3l1,3.3c0,0.1,0.1,0.3,0.1,0.4C6.1,5.6,5.6,6.1,5,6.1z"/>
</g>
</svg>
