<?xml version="1.0" encoding="utf-8"?>
<!-- Generator: Adobe Illustrator 26.3.1, SVG Export Plug-In . SVG Version: 6.00 Build 0)  -->
<svg version="1.1" id="Layer_1" xmlns="http://www.w3.org/2000/svg" xmlns:xlink="http://www.w3.org/1999/xlink" x="0px" y="0px"
	 viewBox="0 0 10 10" style="enable-background:new 0 0 10 10;" xml:space="preserve">
<style type="text/css">
	.st0{fill:#E5471A;}
</style>
<g>
	<g>
		<path class="st0" d="M3.5,4.8C3.4,4.8,3.3,5,3.4,5.1l0.5,1.6c0,0.1,0.2,0.2,0.3,0.2h1.7c0.1,0,0.2-0.1,0.3-0.2l0.5-1.6
			c0-0.1,0-0.2-0.1-0.3l-1.4-1c-0.1-0.1-0.2-0.1-0.3,0L3.5,4.8z"/>
	</g>
	<g>
		<path class="st0" d="M4.2,7.2c-0.1,0-0.2,0.1-0.1,0.2l0.6,1.9c0,0.1,0.2,0.2,0.3,0.2h0c0.1,0,0.2-0.1,0.3-0.2l0.6-1.9
			c0-0.1,0-0.2-0.1-0.2H4.2z"/>
	</g>
	<g>
		<path class="st0" d="M6.4,6.7c0,0.1,0,0.2,0.1,0.2h2c0.1,0,0.2-0.1,0.3-0.2l0,0c0-0.1,0-0.2-0.1-0.3L7.1,5.2
			C7,5.1,6.9,5.2,6.9,5.3L6.4,6.7z"/>
	</g>
	<g>
		<path class="st0" d="M5.6,9.3c0,0.1,0,0.2,0.1,0.2h2c0.1,0,0.2-0.1,0.3-0.2l0.6-1.9c0-0.1,0-0.2-0.1-0.2h-2
			c-0.1,0-0.2,0.1-0.3,0.2L5.6,9.3z"/>
	</g>
	<g>
		<path class="st0" d="M6.6,4.5c0.1,0.1,0.2,0,0.2-0.1l0.6-1.9c0-0.1,0-0.2-0.1-0.3l0,0C7.3,2.1,7.1,2.1,7,2.2L5.4,3.3
			c-0.1,0.1-0.1,0.2,0,0.2L6.6,4.5z"/>
	</g>
	<g>
		<path class="st0" d="M8,2.6c-0.1-0.1-0.2,0-0.2,0.1L7.1,4.6c0,0.1,0,0.2,0.1,0.3L8.8,6C8.9,6.1,9,6.1,9.1,6l0.6-1.9
			c0-0.1,0-0.2-0.1-0.3L8,2.6z"/>
	</g>
	<g>
		<path class="st0" d="M4.6,3.6c0.1-0.1,0.1-0.2,0-0.2L3,2.2c-0.1-0.1-0.2-0.1-0.3,0l0,0C2.5,2.3,2.5,2.4,2.5,2.5l0.6,1.9
			c0,0.1,0.1,0.1,0.2,0.1L4.6,3.6z"/>
	</g>
	<g>
		<path class="st0" d="M6.8,2c0.1-0.1,0.1-0.2,0-0.2L5.2,0.6c-0.1-0.1-0.2-0.1-0.3,0L3.2,1.7C3.2,1.8,3.2,1.9,3.2,2l1.6,1.2
			c0.1,0.1,0.2,0.1,0.3,0L6.8,2z"/>
	</g>
	<g>
		<path class="st0" d="M3.1,5.3c0-0.1-0.1-0.1-0.2-0.1L1.3,6.4C1.2,6.4,1.1,6.6,1.2,6.7l0,0c0,0.1,0.2,0.2,0.3,0.2h2
			c0.1,0,0.2-0.1,0.1-0.2L3.1,5.3z"/>
	</g>
	<g>
		<path class="st0" d="M1.6,7.2c-0.1,0-0.2,0.1-0.1,0.2L2,9.3c0,0.1,0.2,0.2,0.3,0.2h2c0.1,0,0.2-0.1,0.1-0.2L3.8,7.4
			c0-0.1-0.2-0.2-0.3-0.2H1.6z"/>
	</g>
	<g>
		<path class="st0" d="M2.3,2.7c0-0.1-0.1-0.1-0.2-0.1L0.4,3.8C0.4,3.9,0.3,4,0.3,4.1L0.9,6C1,6.1,1.1,6.1,1.2,6l1.6-1.2
			c0.1-0.1,0.1-0.2,0.1-0.3L2.3,2.7z"/>
	</g>
</g>
</svg>
