<?xml version="1.0" encoding="utf-8"?>
<!-- Generator: Adobe Illustrator 26.3.1, SVG Export Plug-In . SVG Version: 6.00 Build 0)  -->
<svg version="1.1" id="Layer_1" xmlns="http://www.w3.org/2000/svg" xmlns:xlink="http://www.w3.org/1999/xlink" x="0px" y="0px"
	 viewBox="0 0 10 10" style="enable-background:new 0 0 10 10;" xml:space="preserve">
<style type="text/css">
	.st0{fill:#E5471A;}
</style>
<g>
	<path class="st0" d="M1.2,1.9c0,0.1,0.1,0.2,0.2,0.2h0.9c0.1,0,0.2-0.1,0.2-0.2V1c0-0.1-0.1-0.2-0.2-0.2H1.4C1.3,0.8,1.2,0.9,1.2,1
		V1.9z"/>
	<path class="st0" d="M1.2,3.6c0,0.1,0.1,0.2,0.2,0.2h0.9c0.1,0,0.2-0.1,0.2-0.2V2.8c0-0.1-0.1-0.2-0.2-0.2H1.4
		c-0.1,0-0.2,0.1-0.2,0.2V3.6z"/>
	<path class="st0" d="M1.2,5.4c0,0.1,0.1,0.2,0.2,0.2h0.9c0.1,0,0.2-0.1,0.2-0.2V4.6c0-0.1-0.1-0.2-0.2-0.2H1.4
		c-0.1,0-0.2,0.1-0.2,0.2V5.4z"/>
	<path class="st0" d="M1.2,7.2c0,0.1,0.1,0.2,0.2,0.2h0.9c0.1,0,0.2-0.1,0.2-0.2V6.4c0-0.1-0.1-0.2-0.2-0.2H1.4
		c-0.1,0-0.2,0.1-0.2,0.2V7.2z"/>
	<path class="st0" d="M1.2,9c0,0.1,0.1,0.2,0.2,0.2h0.9c0.1,0,0.2-0.1,0.2-0.2V8.1c0-0.1-0.1-0.2-0.2-0.2H1.4C1.3,7.9,1.2,8,1.2,8.1
		V9z"/>
	<path class="st0" d="M8.3,5c0-0.4,0.3-1.3,0.3-1.3c0.4-0.8,0.3-1.8,0.3-1.8s0-1.2-2.2-0.9S4.8,4,4.8,4v1v1c0,0-0.3,2.9,1.9,3.1
		c2.2,0.2,2.2-0.9,2.2-0.9s0.1-1.1-0.3-1.8C8.6,6.3,8.3,5.4,8.3,5z"/>
</g>
</svg>
