<?xml version="1.0" encoding="utf-8"?>
<!-- Generator: Adobe Illustrator 26.3.1, SVG Export Plug-In . SVG Version: 6.00 Build 0)  -->
<svg version="1.1" id="Layer_1" xmlns="http://www.w3.org/2000/svg" xmlns:xlink="http://www.w3.org/1999/xlink" x="0px" y="0px"
	 viewBox="0 0 10 10" style="enable-background:new 0 0 10 10;" xml:space="preserve">
<style type="text/css">
	.st0{fill:#E5471A;}
</style>
<g>
	<path class="st0" d="M3.7,0.7c0-0.1-0.1-0.2-0.2-0.2H2.7c-0.1,0-0.2,0.1-0.2,0.2v0.8c0,0.1,0.1,0.2,0.2,0.2h0.8
		c0.1,0,0.2-0.1,0.2-0.2V0.7z"/>
	<path class="st0" d="M5.4,0.7c0-0.1-0.1-0.2-0.2-0.2H4.4c-0.1,0-0.2,0.1-0.2,0.2v0.8c0,0.1,0.1,0.2,0.2,0.2h0.8
		c0.1,0,0.2-0.1,0.2-0.2V0.7z"/>
	<path class="st0" d="M7.1,0.7c0-0.1-0.1-0.2-0.2-0.2H6.1C6,0.5,5.9,0.6,5.9,0.7v0.8c0,0.1,0.1,0.2,0.2,0.2h0.8
		c0.1,0,0.2-0.1,0.2-0.2V0.7z"/>
	<path class="st0" d="M3.7,2.4c0-0.1-0.1-0.2-0.2-0.2H2.7c-0.1,0-0.2,0.1-0.2,0.2v0.8c0,0.1,0.1,0.2,0.2,0.2h0.8
		c0.1,0,0.2-0.1,0.2-0.2V2.4z"/>
	<path class="st0" d="M5.4,2.4c0-0.1-0.1-0.2-0.2-0.2H4.4c-0.1,0-0.2,0.1-0.2,0.2v0.8c0,0.1,0.1,0.2,0.2,0.2h0.8
		c0.1,0,0.2-0.1,0.2-0.2V2.4z"/>
	<path class="st0" d="M7.1,2.4c0-0.1-0.1-0.2-0.2-0.2H6.1C6,2.2,5.9,2.3,5.9,2.4v0.8c0,0.1,0.1,0.2,0.2,0.2h0.8
		c0.1,0,0.2-0.1,0.2-0.2V2.4z"/>
	<path class="st0" d="M3.7,4.1c0-0.1-0.1-0.2-0.2-0.2H2.7c-0.1,0-0.2,0.1-0.2,0.2v0.8C2.5,4.9,2.6,5,2.7,5h0.8
		c0.1,0,0.2-0.1,0.2-0.2V4.1z"/>
	<path class="st0" d="M5.4,4.1c0-0.1-0.1-0.2-0.2-0.2H4.4c-0.1,0-0.2,0.1-0.2,0.2v0.8C4.2,4.9,4.3,5,4.4,5h0.8
		c0.1,0,0.2-0.1,0.2-0.2V4.1z"/>
	<path class="st0" d="M7.1,4.1c0-0.1-0.1-0.2-0.2-0.2H6.1C6,3.9,5.9,3.9,5.9,4.1v0.8C5.9,4.9,6,5,6.1,5h0.8C7,5,7.1,4.9,7.1,4.8V4.1
		z"/>
	<path class="st0" d="M6.8,5.6H4C3.7,5.6,3.5,5.8,3.5,6c0,0.2,0.2,0.4,0.4,0.4h2.1c0.1,0,0.1,0,0.1,0.1c0,0,0,0.1-0.1,0.1
		c0,0,0,0,0,0c0,0,0,0,0,0H3.3L1.8,5.1C1.6,5,1.3,5,1.1,5.1C1,5.3,1,5.6,1.1,5.8l1.5,1.5l0.6,0.6h4.1L9,9.5V7.7L6.8,5.6z"/>
</g>
</svg>
