<?xml version="1.0" encoding="utf-8"?>
<!-- Generator: Adobe Illustrator 26.3.1, SVG Export Plug-In . SVG Version: 6.00 Build 0)  -->
<svg version="1.1" id="Layer_1" xmlns="http://www.w3.org/2000/svg" xmlns:xlink="http://www.w3.org/1999/xlink" x="0px" y="0px"
	 viewBox="0 0 10 10" style="enable-background:new 0 0 10 10;" xml:space="preserve">
<style type="text/css">
	.st0{fill:#E5471A;}
</style>
<g>
	<g>
		<path class="st0" d="M5.1,0.8c-0.1-0.1-0.2-0.1-0.3,0l-4,4c-0.1,0.1-0.1,0.2,0,0.3l4,4c0.1,0.1,0.2,0.1,0.3,0l4-4
			c0.1-0.1,0.1-0.2,0-0.3L5.1,0.8z"/>
	</g>
	<g>
		<path class="st0" d="M0.8,0.6c-0.1,0-0.2,0.1-0.2,0.2v3.6c0,0.1,0.1,0.1,0.1,0.1l3.7-3.7c0.1-0.1,0.1-0.1-0.1-0.1H0.8z"/>
	</g>
	<g>
		<path class="st0" d="M5.6,0.6c-0.1,0-0.1,0.1-0.1,0.1l3.7,3.7c0.1,0.1,0.1,0.1,0.1-0.1V0.8c0-0.1-0.1-0.2-0.2-0.2H5.6z"/>
	</g>
	<g>
		<path class="st0" d="M0.6,9.2c0,0.1,0.1,0.2,0.2,0.2h3.6c0.1,0,0.1-0.1,0.1-0.1L0.8,5.5C0.7,5.5,0.6,5.5,0.6,5.6V9.2z"/>
	</g>
	<g>
		<path class="st0" d="M9.2,9.4c0.1,0,0.2-0.1,0.2-0.2V5.6c0-0.1-0.1-0.1-0.1-0.1L5.5,9.2C5.5,9.3,5.5,9.4,5.6,9.4H9.2z"/>
	</g>
</g>
</svg>
