<?xml version="1.0" encoding="utf-8"?>
<!-- Generator: Adobe Illustrator 26.3.1, SVG Export Plug-In . SVG Version: 6.00 Build 0)  -->
<svg version="1.1" id="Layer_1" xmlns="http://www.w3.org/2000/svg" xmlns:xlink="http://www.w3.org/1999/xlink" x="0px" y="0px"
	 viewBox="0 0 10 10" style="enable-background:new 0 0 10 10;" xml:space="preserve">
<style type="text/css">
	.st0{fill:#E5471A;}
</style>
<g>
	<g>
		<path class="st0" d="M0.1,1.1c0,0.1,0.1,0.2,0.2,0.2h0.8c0.1,0,0.2-0.1,0.2-0.2V0.3c0-0.1-0.1-0.2-0.2-0.2H0.3
			c-0.1,0-0.2,0.1-0.2,0.2V1.1z"/>
	</g>
	<g>
		<path class="st0" d="M1.8,1.1c0,0.1,0.1,0.2,0.2,0.2h0.8C2.9,1.3,3,1.2,3,1.1V0.3c0-0.1-0.1-0.2-0.2-0.2H2c-0.1,0-0.2,0.1-0.2,0.2
			V1.1z"/>
	</g>
	<g>
		<path class="st0" d="M3.5,1.1c0,0.1,0.1,0.2,0.2,0.2h0.8c0.1,0,0.2-0.1,0.2-0.2V0.3c0-0.1-0.1-0.2-0.2-0.2H3.7
			c-0.1,0-0.2,0.1-0.2,0.2V1.1z"/>
	</g>
	<g>
		<path class="st0" d="M5.3,1.1c0,0.1,0.1,0.2,0.2,0.2h0.8c0.1,0,0.2-0.1,0.2-0.2V0.3c0-0.1-0.1-0.2-0.2-0.2H5.5
			c-0.1,0-0.2,0.1-0.2,0.2V1.1z"/>
	</g>
	<g>
		<path class="st0" d="M7,1.1c0,0.1,0.1,0.2,0.2,0.2H8c0.1,0,0.2-0.1,0.2-0.2V0.3c0-0.1-0.1-0.2-0.2-0.2H7.2C7.1,0.1,7,0.2,7,0.3
			V1.1z"/>
	</g>
	<g>
		<path class="st0" d="M8.9,0.1c-0.1,0-0.2,0.1-0.2,0.2v0.8c0,0.1,0.1,0.2,0.2,0.2h0.8c0.1,0,0.2-0.1,0.2-0.2V0.3
			c0-0.1-0.1-0.2-0.2-0.2H8.9z"/>
	</g>
	<g>
		<path class="st0" d="M0.1,2.8C0.1,2.9,0.2,3,0.3,3h0.8c0.1,0,0.2-0.1,0.2-0.2V2c0-0.1-0.1-0.2-0.2-0.2H0.3C0.2,1.8,0.1,1.9,0.1,2
			V2.8z"/>
	</g>
	<g>
		<path class="st0" d="M1.8,2.8C1.8,2.9,1.9,3,2,3h0.8C2.9,3,3,2.9,3,2.8V2c0-0.1-0.1-0.2-0.2-0.2H2C1.9,1.8,1.8,1.9,1.8,2V2.8z"/>
	</g>
	<g>
		<path class="st0" d="M3.5,2.8C3.5,2.9,3.6,3,3.7,3h0.8c0.1,0,0.2-0.1,0.2-0.2V2c0-0.1-0.1-0.2-0.2-0.2H3.7C3.6,1.8,3.5,1.9,3.5,2
			V2.8z"/>
	</g>
	<g>
		<path class="st0" d="M5.3,2.8C5.3,2.9,5.3,3,5.5,3h0.8c0.1,0,0.2-0.1,0.2-0.2V2c0-0.1-0.1-0.2-0.2-0.2H5.5C5.3,1.8,5.3,1.9,5.3,2
			V2.8z"/>
	</g>
	<g>
		<path class="st0" d="M7,2.8C7,2.9,7.1,3,7.2,3H8c0.1,0,0.2-0.1,0.2-0.2V2c0-0.1-0.1-0.2-0.2-0.2H7.2C7.1,1.8,7,1.9,7,2V2.8z"/>
	</g>
	<g>
		<path class="st0" d="M8.7,2.8C8.7,2.9,8.8,3,8.9,3h0.8c0.1,0,0.2-0.1,0.2-0.2V2c0-0.1-0.1-0.2-0.2-0.2H8.9C8.8,1.8,8.7,1.9,8.7,2
			V2.8z"/>
	</g>
	<g>
		<path class="st0" d="M0.1,4.5c0,0.1,0.1,0.2,0.2,0.2h0.8c0.1,0,0.2-0.1,0.2-0.2V3.7c0-0.1-0.1-0.2-0.2-0.2H0.3
			c-0.1,0-0.2,0.1-0.2,0.2V4.5z"/>
	</g>
	<g>
		<path class="st0" d="M1.8,4.5c0,0.1,0.1,0.2,0.2,0.2h0.8C2.9,4.7,3,4.7,3,4.5V3.7c0-0.1-0.1-0.2-0.2-0.2H2c-0.1,0-0.2,0.1-0.2,0.2
			V4.5z"/>
	</g>
	<g>
		<path class="st0" d="M3.5,4.5c0,0.1,0.1,0.2,0.2,0.2h0.8c0.1,0,0.2-0.1,0.2-0.2V3.7c0-0.1-0.1-0.2-0.2-0.2H3.7
			c-0.1,0-0.2,0.1-0.2,0.2V4.5z"/>
	</g>
	<g>
		<path class="st0" d="M5.3,4.5c0,0.1,0.1,0.2,0.2,0.2h0.8c0.1,0,0.2-0.1,0.2-0.2V3.7c0-0.1-0.1-0.2-0.2-0.2H5.5
			c-0.1,0-0.2,0.1-0.2,0.2V4.5z"/>
	</g>
	<g>
		<path class="st0" d="M7,4.5c0,0.1,0.1,0.2,0.2,0.2H8c0.1,0,0.2-0.1,0.2-0.2V3.7c0-0.1-0.1-0.2-0.2-0.2H7.2C7.1,3.5,7,3.6,7,3.7
			V4.5z"/>
	</g>
	<g>
		<path class="st0" d="M8.7,4.5c0,0.1,0.1,0.2,0.2,0.2h0.8c0.1,0,0.2-0.1,0.2-0.2V3.7c0-0.1-0.1-0.2-0.2-0.2H8.9
			c-0.1,0-0.2,0.1-0.2,0.2V4.5z"/>
	</g>
	<g>
		<path class="st0" d="M0.1,6.3c0,0.1,0.1,0.2,0.2,0.2h0.8c0.1,0,0.2-0.1,0.2-0.2V5.5c0-0.1-0.1-0.2-0.2-0.2H0.3
			c-0.1,0-0.2,0.1-0.2,0.2V6.3z"/>
	</g>
	<g>
		<path class="st0" d="M1.8,6.3c0,0.1,0.1,0.2,0.2,0.2h0.8C2.9,6.5,3,6.4,3,6.3V5.5c0-0.1-0.1-0.2-0.2-0.2H2c-0.1,0-0.2,0.1-0.2,0.2
			V6.3z"/>
	</g>
	<g>
		<path class="st0" d="M3.5,6.3c0,0.1,0.1,0.2,0.2,0.2h0.8c0.1,0,0.2-0.1,0.2-0.2V5.5c0-0.1-0.1-0.2-0.2-0.2H3.7
			c-0.1,0-0.2,0.1-0.2,0.2V6.3z"/>
	</g>
	<g>
		<path class="st0" d="M5.3,6.3c0,0.1,0.1,0.2,0.2,0.2h0.8c0.1,0,0.2-0.1,0.2-0.2V5.5c0-0.1-0.1-0.2-0.2-0.2H5.5
			c-0.1,0-0.2,0.1-0.2,0.2V6.3z"/>
	</g>
	<g>
		<path class="st0" d="M7,6.3c0,0.1,0.1,0.2,0.2,0.2H8c0.1,0,0.2-0.1,0.2-0.2V5.5c0-0.1-0.1-0.2-0.2-0.2H7.2C7.1,5.3,7,5.3,7,5.5
			V6.3z"/>
	</g>
	<g>
		<path class="st0" d="M8.7,6.3c0,0.1,0.1,0.2,0.2,0.2h0.8c0.1,0,0.2-0.1,0.2-0.2V5.5c0-0.1-0.1-0.2-0.2-0.2H8.9
			c-0.1,0-0.2,0.1-0.2,0.2V6.3z"/>
	</g>
	<g>
		<path class="st0" d="M0.1,8c0,0.1,0.1,0.2,0.2,0.2h0.8c0.1,0,0.2-0.1,0.2-0.2V7.2C1.3,7.1,1.2,7,1.1,7H0.3C0.2,7,0.1,7.1,0.1,7.2
			V8z"/>
	</g>
	<g>
		<path class="st0" d="M1.8,8c0,0.1,0.1,0.2,0.2,0.2h0.8C2.9,8.2,3,8.1,3,8V7.2C3,7.1,2.9,7,2.8,7H2C1.9,7,1.8,7.1,1.8,7.2V8z"/>
	</g>
	<g>
		<path class="st0" d="M3.5,8c0,0.1,0.1,0.2,0.2,0.2h0.8c0.1,0,0.2-0.1,0.2-0.2V7.2C4.7,7.1,4.7,7,4.5,7H3.7C3.6,7,3.5,7.1,3.5,7.2
			V8z"/>
	</g>
	<g>
		<path class="st0" d="M5.3,8c0,0.1,0.1,0.2,0.2,0.2h0.8c0.1,0,0.2-0.1,0.2-0.2V7.2C6.5,7.1,6.4,7,6.3,7H5.5C5.3,7,5.3,7.1,5.3,7.2
			V8z"/>
	</g>
	<g>
		<path class="st0" d="M7,8c0,0.1,0.1,0.2,0.2,0.2H8c0.1,0,0.2-0.1,0.2-0.2V7.2C8.2,7.1,8.1,7,8,7H7.2C7.1,7,7,7.1,7,7.2V8z"/>
	</g>
	<g>
		<path class="st0" d="M8.7,8c0,0.1,0.1,0.2,0.2,0.2h0.8c0.1,0,0.2-0.1,0.2-0.2V7.2C9.9,7.1,9.8,7,9.7,7H8.9C8.8,7,8.7,7.1,8.7,7.2
			V8z"/>
	</g>
	<g>
		<path class="st0" d="M0.1,9.7c0,0.1,0.1,0.2,0.2,0.2h0.8c0.1,0,0.2-0.1,0.2-0.2V8.9c0-0.1-0.1-0.2-0.2-0.2H0.3
			c-0.1,0-0.2,0.1-0.2,0.2V9.7z"/>
	</g>
	<g>
		<path class="st0" d="M1.8,9.7c0,0.1,0.1,0.2,0.2,0.2h0.8C2.9,9.9,3,9.8,3,9.7V8.9c0-0.1-0.1-0.2-0.2-0.2H2c-0.1,0-0.2,0.1-0.2,0.2
			V9.7z"/>
	</g>
	<g>
		<path class="st0" d="M3.5,9.7c0,0.1,0.1,0.2,0.2,0.2h0.8c0.1,0,0.2-0.1,0.2-0.2V8.9c0-0.1-0.1-0.2-0.2-0.2H3.7
			c-0.1,0-0.2,0.1-0.2,0.2V9.7z"/>
	</g>
	<g>
		<path class="st0" d="M5.3,9.7c0,0.1,0.1,0.2,0.2,0.2h0.8c0.1,0,0.2-0.1,0.2-0.2V8.9c0-0.1-0.1-0.2-0.2-0.2H5.5
			c-0.1,0-0.2,0.1-0.2,0.2V9.7z"/>
	</g>
	<g>
		<path class="st0" d="M7,9.7c0,0.1,0.1,0.2,0.2,0.2H8c0.1,0,0.2-0.1,0.2-0.2V8.9c0-0.1-0.1-0.2-0.2-0.2H7.2C7.1,8.7,7,8.8,7,8.9
			V9.7z"/>
	</g>
	<g>
		<path class="st0" d="M8.7,9.7c0,0.1,0.1,0.2,0.2,0.2h0.8c0.1,0,0.2-0.1,0.2-0.2V8.9c0-0.1-0.1-0.2-0.2-0.2H8.9
			c-0.1,0-0.2,0.1-0.2,0.2V9.7z"/>
	</g>
</g>
</svg>
