<?xml version="1.0" encoding="utf-8"?>
<!-- Generator: Adobe Illustrator 26.3.1, SVG Export Plug-In . SVG Version: 6.00 Build 0)  -->
<svg version="1.1" id="Layer_1" xmlns="http://www.w3.org/2000/svg" xmlns:xlink="http://www.w3.org/1999/xlink" x="0px" y="0px"
	 viewBox="0 0 10 10" style="enable-background:new 0 0 10 10;" xml:space="preserve">
<style type="text/css">
	.st0{fill:#E5471A;}
</style>
<g>
	<g>
		<path class="st0" d="M0.3,1.1c0,0.1,0.1,0.2,0.2,0.2h0.6c0.1,0,0.2-0.1,0.2-0.2V0.5c0-0.1-0.1-0.2-0.2-0.2H0.5
			c-0.1,0-0.2,0.1-0.2,0.2V1.1z"/>
	</g>
	<g>
		<path class="st0" d="M1.7,1.1c0,0.1,0.1,0.2,0.2,0.2h0.6c0.1,0,0.2-0.1,0.2-0.2V0.5c0-0.1-0.1-0.2-0.2-0.2H1.9
			c-0.1,0-0.2,0.1-0.2,0.2V1.1z"/>
	</g>
	<g>
		<path class="st0" d="M3.1,1.1c0,0.1,0.1,0.2,0.2,0.2h0.6c0.1,0,0.2-0.1,0.2-0.2V0.5c0-0.1-0.1-0.2-0.2-0.2H3.3
			c-0.1,0-0.2,0.1-0.2,0.2V1.1z"/>
	</g>
	<g>
		<path class="st0" d="M4.5,1.1c0,0.1,0.1,0.2,0.2,0.2h0.6c0.1,0,0.2-0.1,0.2-0.2V0.5c0-0.1-0.1-0.2-0.2-0.2H4.7
			c-0.1,0-0.2,0.1-0.2,0.2V1.1z"/>
	</g>
	<g>
		<path class="st0" d="M5.9,1.1c0,0.1,0.1,0.2,0.2,0.2h0.6c0.1,0,0.2-0.1,0.2-0.2V0.5c0-0.1-0.1-0.2-0.2-0.2H6.1
			C6,0.3,5.9,0.4,5.9,0.5V1.1z"/>
	</g>
	<g>
		<path class="st0" d="M7.3,1.1c0,0.1,0.1,0.2,0.2,0.2h0.6c0.1,0,0.2-0.1,0.2-0.2V0.5c0-0.1-0.1-0.2-0.2-0.2H7.5
			c-0.1,0-0.2,0.1-0.2,0.2V1.1z"/>
	</g>
	<g>
		<path class="st0" d="M8.9,0.3c-0.1,0-0.2,0.1-0.2,0.2v0.6c0,0.1,0.1,0.2,0.2,0.2h0.6c0.1,0,0.2-0.1,0.2-0.2V0.5
			c0-0.1-0.1-0.2-0.2-0.2H8.9z"/>
	</g>
	<g>
		<path class="st0" d="M0.3,2.5c0,0.1,0.1,0.2,0.2,0.2h0.6c0.1,0,0.2-0.1,0.2-0.2V1.9c0-0.1-0.1-0.2-0.2-0.2H0.5
			c-0.1,0-0.2,0.1-0.2,0.2V2.5z"/>
	</g>
	<g>
		<path class="st0" d="M1.7,2.5c0,0.1,0.1,0.2,0.2,0.2h0.6c0.1,0,0.2-0.1,0.2-0.2V1.9c0-0.1-0.1-0.2-0.2-0.2H1.9
			c-0.1,0-0.2,0.1-0.2,0.2V2.5z"/>
	</g>
	<g>
		<path class="st0" d="M3.1,2.5c0,0.1,0.1,0.2,0.2,0.2h0.6c0.1,0,0.2-0.1,0.2-0.2V1.9c0-0.1-0.1-0.2-0.2-0.2H3.3
			c-0.1,0-0.2,0.1-0.2,0.2V2.5z"/>
	</g>
	<g>
		<path class="st0" d="M4.5,2.5c0,0.1,0.1,0.2,0.2,0.2h0.6c0.1,0,0.2-0.1,0.2-0.2V1.9c0-0.1-0.1-0.2-0.2-0.2H4.7
			c-0.1,0-0.2,0.1-0.2,0.2V2.5z"/>
	</g>
	<g>
		<path class="st0" d="M5.9,2.5c0,0.1,0.1,0.2,0.2,0.2h0.6c0.1,0,0.2-0.1,0.2-0.2V1.9c0-0.1-0.1-0.2-0.2-0.2H6.1
			C6,1.7,5.9,1.8,5.9,1.9V2.5z"/>
	</g>
	<g>
		<path class="st0" d="M7.3,2.5c0,0.1,0.1,0.2,0.2,0.2h0.6c0.1,0,0.2-0.1,0.2-0.2V1.9c0-0.1-0.1-0.2-0.2-0.2H7.5
			c-0.1,0-0.2,0.1-0.2,0.2V2.5z"/>
	</g>
	<g>
		<path class="st0" d="M8.7,2.5c0,0.1,0.1,0.2,0.2,0.2h0.6c0.1,0,0.2-0.1,0.2-0.2V1.9c0-0.1-0.1-0.2-0.2-0.2H8.9
			c-0.1,0-0.2,0.1-0.2,0.2V2.5z"/>
	</g>
	<g>
		<path class="st0" d="M0.3,3.9c0,0.1,0.1,0.2,0.2,0.2h0.6c0.1,0,0.2-0.1,0.2-0.2V3.3c0-0.1-0.1-0.2-0.2-0.2H0.5
			c-0.1,0-0.2,0.1-0.2,0.2V3.9z"/>
	</g>
	<g>
		<path class="st0" d="M1.7,3.9c0,0.1,0.1,0.2,0.2,0.2h0.6c0.1,0,0.2-0.1,0.2-0.2V3.3c0-0.1-0.1-0.2-0.2-0.2H1.9
			c-0.1,0-0.2,0.1-0.2,0.2V3.9z"/>
	</g>
	<g>
		<path class="st0" d="M3.1,3.9c0,0.1,0.1,0.2,0.2,0.2h0.6C4,4.1,4.1,4,4.1,3.9V3.3c0-0.1-0.1-0.2-0.2-0.2H3.3
			c-0.1,0-0.2,0.1-0.2,0.2V3.9z"/>
	</g>
	<g>
		<path class="st0" d="M4.5,3.9c0,0.1,0.1,0.2,0.2,0.2h0.6c0.1,0,0.2-0.1,0.2-0.2V3.3c0-0.1-0.1-0.2-0.2-0.2H4.7
			c-0.1,0-0.2,0.1-0.2,0.2V3.9z"/>
	</g>
	<g>
		<path class="st0" d="M5.9,3.9C5.9,4,6,4.1,6.1,4.1h0.6c0.1,0,0.2-0.1,0.2-0.2V3.3c0-0.1-0.1-0.2-0.2-0.2H6.1
			C6,3.1,5.9,3.2,5.9,3.3V3.9z"/>
	</g>
	<g>
		<path class="st0" d="M7.3,3.9c0,0.1,0.1,0.2,0.2,0.2h0.6c0.1,0,0.2-0.1,0.2-0.2V3.3c0-0.1-0.1-0.2-0.2-0.2H7.5
			c-0.1,0-0.2,0.1-0.2,0.2V3.9z"/>
	</g>
	<g>
		<path class="st0" d="M8.7,3.9c0,0.1,0.1,0.2,0.2,0.2h0.6c0.1,0,0.2-0.1,0.2-0.2V3.3c0-0.1-0.1-0.2-0.2-0.2H8.9
			c-0.1,0-0.2,0.1-0.2,0.2V3.9z"/>
	</g>
	<g>
		<path class="st0" d="M0.3,5.3c0,0.1,0.1,0.2,0.2,0.2h0.6c0.1,0,0.2-0.1,0.2-0.2V4.7c0-0.1-0.1-0.2-0.2-0.2H0.5
			c-0.1,0-0.2,0.1-0.2,0.2V5.3z"/>
	</g>
	<g>
		<path class="st0" d="M1.7,5.3c0,0.1,0.1,0.2,0.2,0.2h0.6c0.1,0,0.2-0.1,0.2-0.2V4.7c0-0.1-0.1-0.2-0.2-0.2H1.9
			c-0.1,0-0.2,0.1-0.2,0.2V5.3z"/>
	</g>
	<g>
		<path class="st0" d="M3.1,5.3c0,0.1,0.1,0.2,0.2,0.2h0.6c0.1,0,0.2-0.1,0.2-0.2V4.7c0-0.1-0.1-0.2-0.2-0.2H3.3
			c-0.1,0-0.2,0.1-0.2,0.2V5.3z"/>
	</g>
	<g>
		<path class="st0" d="M4.5,5.3c0,0.1,0.1,0.2,0.2,0.2h0.6c0.1,0,0.2-0.1,0.2-0.2V4.7c0-0.1-0.1-0.2-0.2-0.2H4.7
			c-0.1,0-0.2,0.1-0.2,0.2V5.3z"/>
	</g>
	<g>
		<path class="st0" d="M5.9,5.3c0,0.1,0.1,0.2,0.2,0.2h0.6c0.1,0,0.2-0.1,0.2-0.2V4.7c0-0.1-0.1-0.2-0.2-0.2H6.1
			C6,4.5,5.9,4.6,5.9,4.7V5.3z"/>
	</g>
	<g>
		<path class="st0" d="M7.3,5.3c0,0.1,0.1,0.2,0.2,0.2h0.6c0.1,0,0.2-0.1,0.2-0.2V4.7c0-0.1-0.1-0.2-0.2-0.2H7.5
			c-0.1,0-0.2,0.1-0.2,0.2V5.3z"/>
	</g>
	<g>
		<path class="st0" d="M8.7,5.3c0,0.1,0.1,0.2,0.2,0.2h0.6c0.1,0,0.2-0.1,0.2-0.2V4.7c0-0.1-0.1-0.2-0.2-0.2H8.9
			c-0.1,0-0.2,0.1-0.2,0.2V5.3z"/>
	</g>
	<g>
		<path class="st0" d="M0.3,6.7c0,0.1,0.1,0.2,0.2,0.2h0.6c0.1,0,0.2-0.1,0.2-0.2V6.1c0-0.1-0.1-0.2-0.2-0.2H0.5
			C0.4,5.9,0.3,6,0.3,6.1V6.7z"/>
	</g>
	<g>
		<path class="st0" d="M1.7,6.7c0,0.1,0.1,0.2,0.2,0.2h0.6c0.1,0,0.2-0.1,0.2-0.2V6.1c0-0.1-0.1-0.2-0.2-0.2H1.9
			C1.8,5.9,1.7,6,1.7,6.1V6.7z"/>
	</g>
	<g>
		<path class="st0" d="M3.1,6.7c0,0.1,0.1,0.2,0.2,0.2h0.6c0.1,0,0.2-0.1,0.2-0.2V6.1C4.1,6,4,5.9,3.9,5.9H3.3
			C3.2,5.9,3.1,6,3.1,6.1V6.7z"/>
	</g>
	<g>
		<path class="st0" d="M4.5,6.7c0,0.1,0.1,0.2,0.2,0.2h0.6c0.1,0,0.2-0.1,0.2-0.2V6.1c0-0.1-0.1-0.2-0.2-0.2H4.7
			C4.6,5.9,4.5,6,4.5,6.1V6.7z"/>
	</g>
	<g>
		<path class="st0" d="M5.9,6.7c0,0.1,0.1,0.2,0.2,0.2h0.6c0.1,0,0.2-0.1,0.2-0.2V6.1c0-0.1-0.1-0.2-0.2-0.2H6.1
			C6,5.9,5.9,6,5.9,6.1V6.7z"/>
	</g>
	<g>
		<path class="st0" d="M7.3,6.7c0,0.1,0.1,0.2,0.2,0.2h0.6c0.1,0,0.2-0.1,0.2-0.2V6.1c0-0.1-0.1-0.2-0.2-0.2H7.5
			C7.4,5.9,7.3,6,7.3,6.1V6.7z"/>
	</g>
	<g>
		<path class="st0" d="M8.7,6.7c0,0.1,0.1,0.2,0.2,0.2h0.6c0.1,0,0.2-0.1,0.2-0.2V6.1c0-0.1-0.1-0.2-0.2-0.2H8.9
			C8.8,5.9,8.7,6,8.7,6.1V6.7z"/>
	</g>
	<g>
		<path class="st0" d="M0.3,8.1c0,0.1,0.1,0.2,0.2,0.2h0.6c0.1,0,0.2-0.1,0.2-0.2V7.5c0-0.1-0.1-0.2-0.2-0.2H0.5
			c-0.1,0-0.2,0.1-0.2,0.2V8.1z"/>
	</g>
	<g>
		<path class="st0" d="M1.7,8.1c0,0.1,0.1,0.2,0.2,0.2h0.6c0.1,0,0.2-0.1,0.2-0.2V7.5c0-0.1-0.1-0.2-0.2-0.2H1.9
			c-0.1,0-0.2,0.1-0.2,0.2V8.1z"/>
	</g>
	<g>
		<path class="st0" d="M3.1,8.1c0,0.1,0.1,0.2,0.2,0.2h0.6c0.1,0,0.2-0.1,0.2-0.2V7.5c0-0.1-0.1-0.2-0.2-0.2H3.3
			c-0.1,0-0.2,0.1-0.2,0.2V8.1z"/>
	</g>
	<g>
		<path class="st0" d="M4.5,8.1c0,0.1,0.1,0.2,0.2,0.2h0.6c0.1,0,0.2-0.1,0.2-0.2V7.5c0-0.1-0.1-0.2-0.2-0.2H4.7
			c-0.1,0-0.2,0.1-0.2,0.2V8.1z"/>
	</g>
	<g>
		<path class="st0" d="M5.9,8.1c0,0.1,0.1,0.2,0.2,0.2h0.6c0.1,0,0.2-0.1,0.2-0.2V7.5c0-0.1-0.1-0.2-0.2-0.2H6.1
			C6,7.3,5.9,7.4,5.9,7.5V8.1z"/>
	</g>
	<g>
		<path class="st0" d="M7.3,8.1c0,0.1,0.1,0.2,0.2,0.2h0.6c0.1,0,0.2-0.1,0.2-0.2V7.5c0-0.1-0.1-0.2-0.2-0.2H7.5
			c-0.1,0-0.2,0.1-0.2,0.2V8.1z"/>
	</g>
	<g>
		<path class="st0" d="M8.7,8.1c0,0.1,0.1,0.2,0.2,0.2h0.6c0.1,0,0.2-0.1,0.2-0.2V7.5c0-0.1-0.1-0.2-0.2-0.2H8.9
			c-0.1,0-0.2,0.1-0.2,0.2V8.1z"/>
	</g>
	<g>
		<path class="st0" d="M0.3,9.5c0,0.1,0.1,0.2,0.2,0.2h0.6c0.1,0,0.2-0.1,0.2-0.2V8.9c0-0.1-0.1-0.2-0.2-0.2H0.5
			c-0.1,0-0.2,0.1-0.2,0.2V9.5z"/>
	</g>
	<g>
		<path class="st0" d="M1.7,9.5c0,0.1,0.1,0.2,0.2,0.2h0.6c0.1,0,0.2-0.1,0.2-0.2V8.9c0-0.1-0.1-0.2-0.2-0.2H1.9
			c-0.1,0-0.2,0.1-0.2,0.2V9.5z"/>
	</g>
	<g>
		<path class="st0" d="M3.1,9.5c0,0.1,0.1,0.2,0.2,0.2h0.6c0.1,0,0.2-0.1,0.2-0.2V8.9c0-0.1-0.1-0.2-0.2-0.2H3.3
			c-0.1,0-0.2,0.1-0.2,0.2V9.5z"/>
	</g>
	<g>
		<path class="st0" d="M4.5,9.5c0,0.1,0.1,0.2,0.2,0.2h0.6c0.1,0,0.2-0.1,0.2-0.2V8.9c0-0.1-0.1-0.2-0.2-0.2H4.7
			c-0.1,0-0.2,0.1-0.2,0.2V9.5z"/>
	</g>
	<g>
		<path class="st0" d="M5.9,9.5c0,0.1,0.1,0.2,0.2,0.2h0.6c0.1,0,0.2-0.1,0.2-0.2V8.9c0-0.1-0.1-0.2-0.2-0.2H6.1
			C6,8.7,5.9,8.8,5.9,8.9V9.5z"/>
	</g>
	<g>
		<path class="st0" d="M7.3,9.5c0,0.1,0.1,0.2,0.2,0.2h0.6c0.1,0,0.2-0.1,0.2-0.2V8.9c0-0.1-0.1-0.2-0.2-0.2H7.5
			c-0.1,0-0.2,0.1-0.2,0.2V9.5z"/>
	</g>
	<g>
		<path class="st0" d="M8.7,9.5c0,0.1,0.1,0.2,0.2,0.2h0.6c0.1,0,0.2-0.1,0.2-0.2V8.9c0-0.1-0.1-0.2-0.2-0.2H8.9
			c-0.1,0-0.2,0.1-0.2,0.2V9.5z"/>
	</g>
</g>
</svg>
