<?xml version="1.0" encoding="utf-8"?>
<!-- Generator: Adobe Illustrator 26.3.1, SVG Export Plug-In . SVG Version: 6.00 Build 0)  -->
<svg version="1.1" id="Layer_1" xmlns="http://www.w3.org/2000/svg" xmlns:xlink="http://www.w3.org/1999/xlink" x="0px" y="0px"
	 viewBox="0 0 10 10" style="enable-background:new 0 0 10 10;" xml:space="preserve">
<style type="text/css">
	.st0{fill:#E5471A;}
</style>
<g>
	<g>
		<path class="st0" d="M9.2,4.2c0-0.1-0.1-0.2-0.2-0.1L5.9,4.9C5.8,5,5.8,5,5.9,5.1L9,5.9c0.1,0,0.2,0,0.2-0.1V4.2z"/>
	</g>
	<g>
		<path class="st0" d="M4.2,0.8C4.1,0.8,4.1,0.9,4.1,1l0.8,3.2c0,0.1,0.1,0.1,0.1,0L5.9,1c0-0.1,0-0.2-0.1-0.2H4.2z"/>
	</g>
	<g>
		<path class="st0" d="M5.3,4.6c0,0.1,0,0.2,0.1,0.1l3.6-1c0.1,0,0.2-0.1,0.2-0.3V1c0-0.1-0.1-0.2-0.2-0.2H6.5
			C6.4,0.8,6.3,0.9,6.3,1L5.3,4.6z"/>
	</g>
	<g>
		<path class="st0" d="M5.8,9.2c0.1,0,0.2-0.1,0.1-0.2L5.1,5.9c0-0.1-0.1-0.1-0.1,0L4.1,9c0,0.1,0,0.2,0.1,0.2H5.8z"/>
	</g>
	<g>
		<path class="st0" d="M4.7,5.4c0-0.1,0-0.2-0.1-0.1L1,6.3c-0.1,0-0.2,0.1-0.2,0.3V9c0,0.1,0.1,0.2,0.2,0.2h2.5
			c0.1,0,0.2-0.1,0.3-0.2L4.7,5.4z"/>
	</g>
	<g>
		<path class="st0" d="M5.4,5.3c-0.1,0-0.2,0-0.1,0.1l1,3.6c0,0.1,0.1,0.2,0.3,0.2H9c0.1,0,0.2-0.1,0.2-0.2V6.5
			c0-0.1-0.1-0.2-0.2-0.3L5.4,5.3z"/>
	</g>
	<g>
		<path class="st0" d="M4.1,5.1c0.1,0,0.1-0.1,0-0.1L1,4.1c-0.1,0-0.2,0-0.2,0.1v1.5c0,0.1,0.1,0.2,0.2,0.1L4.1,5.1z"/>
	</g>
	<g>
		<path class="st0" d="M4.6,4.7c0.1,0,0.2,0,0.1-0.1L3.7,1c0-0.1-0.1-0.2-0.3-0.2H1C0.9,0.8,0.8,0.9,0.8,1v2.5
			c0,0.1,0.1,0.2,0.2,0.3L4.6,4.7z"/>
	</g>
</g>
</svg>
