<?xml version="1.0" encoding="utf-8"?>
<!-- Generator: Adobe Illustrator 26.3.1, SVG Export Plug-In . SVG Version: 6.00 Build 0)  -->
<svg version="1.1" id="Layer_1" xmlns="http://www.w3.org/2000/svg" xmlns:xlink="http://www.w3.org/1999/xlink" x="0px" y="0px"
	 viewBox="0 0 10 10" style="enable-background:new 0 0 10 10;" xml:space="preserve">
<style type="text/css">
	.st0{fill:#E5471A;}
</style>
<g>
	<g>
		<path class="st0" d="M5.1,1.2C5,1.1,5,1.1,4.9,1.2l-1.1,2c-0.1,0.1,0,0.2,0.1,0.2h2.3c0.1,0,0.2-0.1,0.1-0.2L5.1,1.2z"/>
	</g>
	<g>
		<path class="st0" d="M8.3,6.7c-0.1-0.1-0.1-0.1-0.2,0L7,8.7C6.9,8.8,7,8.9,7.1,8.9h2.3c0.1,0,0.2-0.1,0.1-0.2L8.3,6.7z"/>
	</g>
	<g>
		<path class="st0" d="M6.2,3.8c0.1-0.1,0-0.2-0.1-0.2H3.9c-0.1,0-0.2,0.1-0.1,0.2l1.1,2C5,5.9,5,5.9,5.1,5.8L6.2,3.8z"/>
	</g>
	<g>
		<path class="st0" d="M2.3,6.4c-0.1,0-0.2,0.1-0.1,0.2l1.1,2c0.1,0.1,0.1,0.1,0.2,0l1.1-2c0.1-0.1,0-0.2-0.1-0.2H2.3z"/>
	</g>
	<g>
		<path class="st0" d="M5.5,6.4c-0.1,0-0.2,0.1-0.1,0.2l1.1,2c0.1,0.1,0.1,0.1,0.2,0l1.1-2c0.1-0.1,0-0.2-0.1-0.2H5.5z"/>
	</g>
	<g>
		<path class="st0" d="M7.7,6.1c0.1,0,0.2-0.1,0.1-0.2L6.7,4C6.7,3.9,6.6,3.9,6.5,4l-1.1,2C5.3,6,5.4,6.1,5.5,6.1H7.7z"/>
	</g>
	<g>
		<path class="st0" d="M3.8,8.7c-0.1,0.1,0,0.2,0.1,0.2h2.3c0.1,0,0.2-0.1,0.1-0.2l-1.1-2C5,6.7,5,6.7,4.9,6.7L3.8,8.7z"/>
	</g>
	<g>
		<path class="st0" d="M3.5,4C3.4,3.9,3.3,3.9,3.3,4l-1.1,2C2.1,6,2.1,6.1,2.3,6.1h2.3c0.1,0,0.2-0.1,0.1-0.2L3.5,4z"/>
	</g>
	<g>
		<path class="st0" d="M0.6,8.7c-0.1,0.1,0,0.2,0.1,0.2h2.3C3,8.9,3.1,8.8,3,8.7l-1.1-2c-0.1-0.1-0.1-0.1-0.2,0L0.6,8.7z"/>
	</g>
</g>
</svg>
